<mxfile host="app.diagrams.net" agent="Mozilla/5.0 (Windows NT 10.0; Win64; x64) AppleWebKit/537.36 (KHTML, like Gecko) Chrome/141.0.0.0 Safari/537.36" version="28.2.7">
  <diagram name="Page-1" id="tm_okDAMAoybUwAEOYvR">
    <mxGraphModel dx="2341" dy="1260" grid="1" gridSize="10" guides="1" tooltips="1" connect="1" arrows="1" fold="1" page="1" pageScale="1" pageWidth="850" pageHeight="1100" math="0" shadow="0">
      <root>
        <mxCell id="0" />
        <mxCell id="1" parent="0" />
        <mxCell id="kyU2B2ZRMLNJrYc_353p-16" value="Front" style="rounded=0;whiteSpace=wrap;html=1;align=left;verticalAlign=top;fontSize=26;fontStyle=1" vertex="1" parent="1">
          <mxGeometry x="20" y="20" width="800" height="500" as="geometry" />
        </mxCell>
        <mxCell id="kyU2B2ZRMLNJrYc_353p-1" value="&lt;font style=&quot;font-size: 32px;&quot;&gt;&lt;b style=&quot;&quot;&gt;U1&lt;/b&gt;&lt;/font&gt;" style="rounded=0;whiteSpace=wrap;html=1;fillColor=#60a917;strokeColor=#2D7600;fontColor=#000000;" vertex="1" parent="1">
          <mxGeometry x="180" y="60" width="120" height="120" as="geometry" />
        </mxCell>
        <mxCell id="kyU2B2ZRMLNJrYc_353p-2" value="&lt;font style=&quot;font-size: 32px;&quot;&gt;&lt;b style=&quot;&quot;&gt;U2&lt;/b&gt;&lt;/font&gt;" style="rounded=0;whiteSpace=wrap;html=1;fillColor=#60a917;strokeColor=#2D7600;fontColor=#000000;" vertex="1" parent="1">
          <mxGeometry x="540" y="60" width="120" height="120" as="geometry" />
        </mxCell>
        <mxCell id="kyU2B2ZRMLNJrYc_353p-41" style="edgeStyle=orthogonalEdgeStyle;rounded=0;orthogonalLoop=1;jettySize=auto;html=1;exitX=0.5;exitY=0;exitDx=0;exitDy=0;entryX=0.5;entryY=1;entryDx=0;entryDy=0;" edge="1" parent="1" source="kyU2B2ZRMLNJrYc_353p-3" target="kyU2B2ZRMLNJrYc_353p-1">
          <mxGeometry relative="1" as="geometry" />
        </mxCell>
        <mxCell id="kyU2B2ZRMLNJrYc_353p-3" value="&lt;font style=&quot;font-size: 32px;&quot;&gt;&lt;b style=&quot;&quot;&gt;U10&lt;/b&gt;&lt;/font&gt;" style="rounded=0;whiteSpace=wrap;html=1;fillColor=#ffe6cc;strokeColor=#d79b00;" vertex="1" parent="1">
          <mxGeometry x="100" y="220" width="100" height="100" as="geometry" />
        </mxCell>
        <mxCell id="kyU2B2ZRMLNJrYc_353p-46" style="edgeStyle=orthogonalEdgeStyle;rounded=0;orthogonalLoop=1;jettySize=auto;html=1;exitX=0.5;exitY=0;exitDx=0;exitDy=0;entryX=0.5;entryY=1;entryDx=0;entryDy=0;" edge="1" parent="1" source="kyU2B2ZRMLNJrYc_353p-4" target="kyU2B2ZRMLNJrYc_353p-1">
          <mxGeometry relative="1" as="geometry" />
        </mxCell>
        <mxCell id="kyU2B2ZRMLNJrYc_353p-4" value="&lt;font style=&quot;font-size: 32px;&quot;&gt;&lt;b style=&quot;&quot;&gt;U06&lt;/b&gt;&lt;/font&gt;" style="rounded=0;whiteSpace=wrap;html=1;fillColor=#ffe6cc;strokeColor=#d79b00;" vertex="1" parent="1">
          <mxGeometry x="280" y="220" width="100" height="100" as="geometry" />
        </mxCell>
        <mxCell id="kyU2B2ZRMLNJrYc_353p-43" style="edgeStyle=orthogonalEdgeStyle;rounded=0;orthogonalLoop=1;jettySize=auto;html=1;exitX=0.5;exitY=0;exitDx=0;exitDy=0;entryX=0.5;entryY=1;entryDx=0;entryDy=0;" edge="1" parent="1" source="kyU2B2ZRMLNJrYc_353p-5" target="kyU2B2ZRMLNJrYc_353p-2">
          <mxGeometry relative="1" as="geometry" />
        </mxCell>
        <mxCell id="kyU2B2ZRMLNJrYc_353p-5" value="&lt;font style=&quot;font-size: 32px;&quot;&gt;&lt;b style=&quot;&quot;&gt;U20&lt;/b&gt;&lt;/font&gt;" style="rounded=0;whiteSpace=wrap;html=1;fillColor=#ffe6cc;strokeColor=#d79b00;" vertex="1" parent="1">
          <mxGeometry x="460" y="220" width="100" height="100" as="geometry" />
        </mxCell>
        <mxCell id="kyU2B2ZRMLNJrYc_353p-45" style="edgeStyle=orthogonalEdgeStyle;rounded=0;orthogonalLoop=1;jettySize=auto;html=1;exitX=0.5;exitY=0;exitDx=0;exitDy=0;entryX=0.5;entryY=1;entryDx=0;entryDy=0;" edge="1" parent="1" source="kyU2B2ZRMLNJrYc_353p-6" target="kyU2B2ZRMLNJrYc_353p-2">
          <mxGeometry relative="1" as="geometry" />
        </mxCell>
        <mxCell id="kyU2B2ZRMLNJrYc_353p-6" value="&lt;font style=&quot;font-size: 32px;&quot;&gt;&lt;b style=&quot;&quot;&gt;U22&lt;/b&gt;&lt;/font&gt;" style="rounded=0;whiteSpace=wrap;html=1;fillColor=#ffe6cc;strokeColor=#d79b00;" vertex="1" parent="1">
          <mxGeometry x="640" y="220" width="100" height="100" as="geometry" />
        </mxCell>
        <mxCell id="kyU2B2ZRMLNJrYc_353p-17" style="edgeStyle=orthogonalEdgeStyle;rounded=0;orthogonalLoop=1;jettySize=auto;html=1;exitX=0.5;exitY=0;exitDx=0;exitDy=0;entryX=0.5;entryY=1;entryDx=0;entryDy=0;" edge="1" parent="1" source="kyU2B2ZRMLNJrYc_353p-7" target="kyU2B2ZRMLNJrYc_353p-3">
          <mxGeometry relative="1" as="geometry" />
        </mxCell>
        <mxCell id="kyU2B2ZRMLNJrYc_353p-7" value="&lt;font style=&quot;font-size: 32px;&quot;&gt;&lt;b style=&quot;&quot;&gt;U07&lt;/b&gt;&lt;/font&gt;&lt;div&gt;&lt;b style=&quot;font-size: 20px; background-color: transparent; color: light-dark(rgb(0, 0, 0), rgb(255, 255, 255));&quot;&gt;FE_0&lt;/b&gt;&lt;/div&gt;" style="rounded=0;whiteSpace=wrap;html=1;fillColor=#dae8fc;strokeColor=#6c8ebf;" vertex="1" parent="1">
          <mxGeometry x="100" y="360" width="100" height="100" as="geometry" />
        </mxCell>
        <mxCell id="kyU2B2ZRMLNJrYc_353p-18" style="edgeStyle=orthogonalEdgeStyle;rounded=0;orthogonalLoop=1;jettySize=auto;html=1;exitX=0.5;exitY=0;exitDx=0;exitDy=0;entryX=0.5;entryY=1;entryDx=0;entryDy=0;" edge="1" parent="1" target="kyU2B2ZRMLNJrYc_353p-4">
          <mxGeometry relative="1" as="geometry">
            <mxPoint x="330" y="360" as="sourcePoint" />
          </mxGeometry>
        </mxCell>
        <mxCell id="kyU2B2ZRMLNJrYc_353p-19" style="edgeStyle=orthogonalEdgeStyle;rounded=0;orthogonalLoop=1;jettySize=auto;html=1;exitX=0.5;exitY=0;exitDx=0;exitDy=0;entryX=0.5;entryY=1;entryDx=0;entryDy=0;" edge="1" parent="1" source="kyU2B2ZRMLNJrYc_353p-9" target="kyU2B2ZRMLNJrYc_353p-5">
          <mxGeometry relative="1" as="geometry" />
        </mxCell>
        <mxCell id="kyU2B2ZRMLNJrYc_353p-9" value="&lt;font style=&quot;font-size: 32px;&quot;&gt;&lt;b style=&quot;&quot;&gt;U19&lt;/b&gt;&lt;/font&gt;&lt;div&gt;&lt;font style=&quot;font-size: 20px;&quot;&gt;&lt;b style=&quot;&quot;&gt;FE_5&lt;/b&gt;&lt;/font&gt;&lt;/div&gt;" style="rounded=0;whiteSpace=wrap;html=1;fillColor=#dae8fc;strokeColor=#6c8ebf;" vertex="1" parent="1">
          <mxGeometry x="460" y="360" width="100" height="100" as="geometry" />
        </mxCell>
        <mxCell id="kyU2B2ZRMLNJrYc_353p-20" style="edgeStyle=orthogonalEdgeStyle;rounded=0;orthogonalLoop=1;jettySize=auto;html=1;exitX=0.5;exitY=0;exitDx=0;exitDy=0;entryX=0.5;entryY=1;entryDx=0;entryDy=0;" edge="1" parent="1" source="kyU2B2ZRMLNJrYc_353p-10" target="kyU2B2ZRMLNJrYc_353p-6">
          <mxGeometry relative="1" as="geometry" />
        </mxCell>
        <mxCell id="kyU2B2ZRMLNJrYc_353p-10" value="&lt;font style=&quot;font-size: 32px;&quot;&gt;&lt;b style=&quot;&quot;&gt;U21&lt;/b&gt;&lt;/font&gt;&lt;div&gt;&lt;font style=&quot;font-size: 20px;&quot;&gt;&lt;b style=&quot;&quot;&gt;FE_7&lt;/b&gt;&lt;/font&gt;&lt;/div&gt;" style="rounded=0;whiteSpace=wrap;html=1;fillColor=#dae8fc;strokeColor=#6c8ebf;" vertex="1" parent="1">
          <mxGeometry x="640" y="360" width="100" height="100" as="geometry" />
        </mxCell>
        <mxCell id="kyU2B2ZRMLNJrYc_353p-11" value="15 ~ 0" style="rounded=0;whiteSpace=wrap;html=1;fontSize=20;fontStyle=1;strokeColor=none;fillColor=none;fontColor=#CC0000;" vertex="1" parent="1">
          <mxGeometry x="70" y="480" width="160" height="20" as="geometry" />
        </mxCell>
        <mxCell id="kyU2B2ZRMLNJrYc_353p-12" value="63 ~ 48" style="rounded=0;whiteSpace=wrap;html=1;fontSize=20;fontStyle=1;strokeColor=none;fillColor=none;fontColor=#CC0000;" vertex="1" parent="1">
          <mxGeometry x="250" y="480" width="160" height="20" as="geometry" />
        </mxCell>
        <mxCell id="kyU2B2ZRMLNJrYc_353p-13" value="79 ~ 64" style="rounded=0;whiteSpace=wrap;html=1;fontSize=20;fontStyle=1;strokeColor=none;fillColor=none;fontColor=#CC0000;" vertex="1" parent="1">
          <mxGeometry x="430" y="480" width="160" height="20" as="geometry" />
        </mxCell>
        <mxCell id="kyU2B2ZRMLNJrYc_353p-14" value="127 ~ 112" style="rounded=0;whiteSpace=wrap;html=1;fontSize=20;fontStyle=1;strokeColor=none;fillColor=none;fontColor=#CC0000;" vertex="1" parent="1">
          <mxGeometry x="610" y="480" width="160" height="20" as="geometry" />
        </mxCell>
        <mxCell id="kyU2B2ZRMLNJrYc_353p-40" value="&lt;font style=&quot;font-size: 32px;&quot;&gt;&lt;b style=&quot;&quot;&gt;U03&lt;/b&gt;&lt;/font&gt;&lt;div&gt;&lt;b style=&quot;font-size: 20px; background-color: transparent; color: light-dark(rgb(0, 0, 0), rgb(255, 255, 255));&quot;&gt;FE_3&lt;/b&gt;&lt;/div&gt;" style="rounded=0;whiteSpace=wrap;html=1;fillColor=#dae8fc;strokeColor=#6c8ebf;" vertex="1" parent="1">
          <mxGeometry x="280" y="360" width="100" height="100" as="geometry" />
        </mxCell>
        <mxCell id="kyU2B2ZRMLNJrYc_353p-47" value="Power Connector" style="rounded=0;whiteSpace=wrap;html=1;fillColor=#fad9d5;strokeColor=#ae4132;" vertex="1" parent="1">
          <mxGeometry x="40" y="80" width="80" height="40" as="geometry" />
        </mxCell>
        <mxCell id="kyU2B2ZRMLNJrYc_353p-48" value="Data Connector" style="rounded=0;whiteSpace=wrap;html=1;fillColor=#b1ddf0;strokeColor=#10739e;" vertex="1" parent="1">
          <mxGeometry x="385" y="80" width="80" height="40" as="geometry" />
        </mxCell>
        <mxCell id="kyU2B2ZRMLNJrYc_353p-49" value="Bottom" style="rounded=0;whiteSpace=wrap;html=1;align=left;verticalAlign=top;fontSize=26;fontStyle=1" vertex="1" parent="1">
          <mxGeometry x="880" y="20" width="800" height="500" as="geometry" />
        </mxCell>
        <mxCell id="kyU2B2ZRMLNJrYc_353p-50" value="&lt;font style=&quot;font-size: 32px;&quot;&gt;&lt;b style=&quot;&quot;&gt;U2&lt;/b&gt;&lt;/font&gt;" style="rounded=0;whiteSpace=wrap;html=1;fillColor=#cdeb8b;strokeColor=default;gradientColor=none;dashed=1;dashPattern=8 8;" vertex="1" parent="1">
          <mxGeometry x="1040" y="60" width="120" height="120" as="geometry" />
        </mxCell>
        <mxCell id="kyU2B2ZRMLNJrYc_353p-51" value="&lt;font style=&quot;font-size: 32px;&quot;&gt;&lt;b style=&quot;&quot;&gt;U1&lt;/b&gt;&lt;/font&gt;" style="rounded=0;whiteSpace=wrap;html=1;fillColor=#cdeb8b;strokeColor=default;gradientColor=none;dashed=1;dashPattern=8 8;" vertex="1" parent="1">
          <mxGeometry x="1400" y="60" width="120" height="120" as="geometry" />
        </mxCell>
        <mxCell id="kyU2B2ZRMLNJrYc_353p-52" style="edgeStyle=orthogonalEdgeStyle;rounded=0;orthogonalLoop=1;jettySize=auto;html=1;exitX=0.5;exitY=0;exitDx=0;exitDy=0;entryX=0.5;entryY=1;entryDx=0;entryDy=0;dashed=1;" edge="1" parent="1" source="kyU2B2ZRMLNJrYc_353p-53" target="kyU2B2ZRMLNJrYc_353p-50">
          <mxGeometry relative="1" as="geometry" />
        </mxCell>
        <mxCell id="kyU2B2ZRMLNJrYc_353p-53" value="&lt;font style=&quot;font-size: 32px;&quot;&gt;&lt;b style=&quot;&quot;&gt;U26&lt;/b&gt;&lt;/font&gt;" style="rounded=0;whiteSpace=wrap;html=1;fillColor=#ffe6cc;strokeColor=#d79b00;" vertex="1" parent="1">
          <mxGeometry x="960" y="220" width="100" height="100" as="geometry" />
        </mxCell>
        <mxCell id="kyU2B2ZRMLNJrYc_353p-54" style="edgeStyle=orthogonalEdgeStyle;rounded=0;orthogonalLoop=1;jettySize=auto;html=1;exitX=0.5;exitY=0;exitDx=0;exitDy=0;entryX=0.5;entryY=1;entryDx=0;entryDy=0;dashed=1;" edge="1" parent="1" source="kyU2B2ZRMLNJrYc_353p-55" target="kyU2B2ZRMLNJrYc_353p-50">
          <mxGeometry relative="1" as="geometry" />
        </mxCell>
        <mxCell id="kyU2B2ZRMLNJrYc_353p-55" value="&lt;font style=&quot;font-size: 32px;&quot;&gt;&lt;b style=&quot;&quot;&gt;U24&lt;/b&gt;&lt;/font&gt;" style="rounded=0;whiteSpace=wrap;html=1;fillColor=#ffe6cc;strokeColor=#d79b00;" vertex="1" parent="1">
          <mxGeometry x="1140" y="220" width="100" height="100" as="geometry" />
        </mxCell>
        <mxCell id="kyU2B2ZRMLNJrYc_353p-56" style="edgeStyle=orthogonalEdgeStyle;rounded=0;orthogonalLoop=1;jettySize=auto;html=1;exitX=0.5;exitY=0;exitDx=0;exitDy=0;entryX=0.5;entryY=1;entryDx=0;entryDy=0;dashed=1;" edge="1" parent="1" source="kyU2B2ZRMLNJrYc_353p-57" target="kyU2B2ZRMLNJrYc_353p-51">
          <mxGeometry relative="1" as="geometry" />
        </mxCell>
        <mxCell id="kyU2B2ZRMLNJrYc_353p-57" value="&lt;font style=&quot;font-size: 32px;&quot;&gt;&lt;b style=&quot;&quot;&gt;U13&lt;/b&gt;&lt;/font&gt;" style="rounded=0;whiteSpace=wrap;html=1;fillColor=#ffe6cc;strokeColor=#d79b00;" vertex="1" parent="1">
          <mxGeometry x="1320" y="220" width="100" height="100" as="geometry" />
        </mxCell>
        <mxCell id="kyU2B2ZRMLNJrYc_353p-58" style="edgeStyle=orthogonalEdgeStyle;rounded=0;orthogonalLoop=1;jettySize=auto;html=1;exitX=0.5;exitY=0;exitDx=0;exitDy=0;entryX=0.5;entryY=1;entryDx=0;entryDy=0;dashed=1;" edge="1" parent="1" source="kyU2B2ZRMLNJrYc_353p-59" target="kyU2B2ZRMLNJrYc_353p-51">
          <mxGeometry relative="1" as="geometry" />
        </mxCell>
        <mxCell id="kyU2B2ZRMLNJrYc_353p-59" value="&lt;font style=&quot;font-size: 32px;&quot;&gt;&lt;b style=&quot;&quot;&gt;U18&lt;/b&gt;&lt;/font&gt;" style="rounded=0;whiteSpace=wrap;html=1;fillColor=#ffe6cc;strokeColor=#d79b00;" vertex="1" parent="1">
          <mxGeometry x="1500" y="220" width="100" height="100" as="geometry" />
        </mxCell>
        <mxCell id="kyU2B2ZRMLNJrYc_353p-60" style="edgeStyle=orthogonalEdgeStyle;rounded=0;orthogonalLoop=1;jettySize=auto;html=1;exitX=0.5;exitY=0;exitDx=0;exitDy=0;entryX=0.5;entryY=1;entryDx=0;entryDy=0;" edge="1" parent="1" source="kyU2B2ZRMLNJrYc_353p-61" target="kyU2B2ZRMLNJrYc_353p-53">
          <mxGeometry relative="1" as="geometry" />
        </mxCell>
        <mxCell id="kyU2B2ZRMLNJrYc_353p-61" value="&lt;font style=&quot;font-size: 32px;&quot;&gt;&lt;b style=&quot;&quot;&gt;U25&lt;/b&gt;&lt;/font&gt;&lt;div&gt;&lt;b style=&quot;background-color: transparent; color: light-dark(rgb(0, 0, 0), rgb(255, 255, 255)); font-size: 20px;&quot;&gt;FE_6&lt;/b&gt;&lt;/div&gt;" style="rounded=0;whiteSpace=wrap;html=1;fillColor=#dae8fc;strokeColor=#6c8ebf;" vertex="1" parent="1">
          <mxGeometry x="960" y="360" width="100" height="100" as="geometry" />
        </mxCell>
        <mxCell id="kyU2B2ZRMLNJrYc_353p-62" style="edgeStyle=orthogonalEdgeStyle;rounded=0;orthogonalLoop=1;jettySize=auto;html=1;exitX=0.5;exitY=0;exitDx=0;exitDy=0;entryX=0.5;entryY=1;entryDx=0;entryDy=0;" edge="1" parent="1" target="kyU2B2ZRMLNJrYc_353p-55">
          <mxGeometry relative="1" as="geometry">
            <mxPoint x="1190" y="360" as="sourcePoint" />
          </mxGeometry>
        </mxCell>
        <mxCell id="kyU2B2ZRMLNJrYc_353p-63" style="edgeStyle=orthogonalEdgeStyle;rounded=0;orthogonalLoop=1;jettySize=auto;html=1;exitX=0.5;exitY=0;exitDx=0;exitDy=0;entryX=0.5;entryY=1;entryDx=0;entryDy=0;" edge="1" parent="1" source="kyU2B2ZRMLNJrYc_353p-64" target="kyU2B2ZRMLNJrYc_353p-57">
          <mxGeometry relative="1" as="geometry" />
        </mxCell>
        <mxCell id="kyU2B2ZRMLNJrYc_353p-64" value="&lt;font style=&quot;font-size: 32px;&quot;&gt;&lt;b style=&quot;&quot;&gt;U11&lt;/b&gt;&lt;/font&gt;&lt;div&gt;&lt;font style=&quot;font-size: 20px;&quot;&gt;&lt;b style=&quot;&quot;&gt;FE_2&lt;/b&gt;&lt;/font&gt;&lt;/div&gt;" style="rounded=0;whiteSpace=wrap;html=1;fillColor=#dae8fc;strokeColor=#6c8ebf;" vertex="1" parent="1">
          <mxGeometry x="1320" y="360" width="100" height="100" as="geometry" />
        </mxCell>
        <mxCell id="kyU2B2ZRMLNJrYc_353p-65" style="edgeStyle=orthogonalEdgeStyle;rounded=0;orthogonalLoop=1;jettySize=auto;html=1;exitX=0.5;exitY=0;exitDx=0;exitDy=0;entryX=0.5;entryY=1;entryDx=0;entryDy=0;" edge="1" parent="1" source="kyU2B2ZRMLNJrYc_353p-66" target="kyU2B2ZRMLNJrYc_353p-59">
          <mxGeometry relative="1" as="geometry" />
        </mxCell>
        <mxCell id="kyU2B2ZRMLNJrYc_353p-66" value="&lt;font style=&quot;font-size: 32px;&quot;&gt;&lt;b style=&quot;&quot;&gt;U17&lt;/b&gt;&lt;/font&gt;&lt;div&gt;&lt;b style=&quot;font-size: 20px; background-color: transparent; color: light-dark(rgb(0, 0, 0), rgb(255, 255, 255));&quot;&gt;FE_1&lt;/b&gt;&lt;/div&gt;" style="rounded=0;whiteSpace=wrap;html=1;fillColor=#dae8fc;strokeColor=#6c8ebf;" vertex="1" parent="1">
          <mxGeometry x="1500" y="360" width="100" height="100" as="geometry" />
        </mxCell>
        <mxCell id="kyU2B2ZRMLNJrYc_353p-67" value="111 ~ 96" style="rounded=0;whiteSpace=wrap;html=1;fontSize=20;fontStyle=1;strokeColor=none;fillColor=none;fontColor=#CC0000;" vertex="1" parent="1">
          <mxGeometry x="930" y="480" width="160" height="20" as="geometry" />
        </mxCell>
        <mxCell id="kyU2B2ZRMLNJrYc_353p-68" value="95 ~ 80" style="rounded=0;whiteSpace=wrap;html=1;fontSize=20;fontStyle=1;strokeColor=none;fillColor=none;fontColor=#CC0000;" vertex="1" parent="1">
          <mxGeometry x="1110" y="480" width="160" height="20" as="geometry" />
        </mxCell>
        <mxCell id="kyU2B2ZRMLNJrYc_353p-69" value="47 ~ 32" style="rounded=0;whiteSpace=wrap;html=1;fontSize=20;fontStyle=1;strokeColor=none;fillColor=none;fontColor=#CC0000;" vertex="1" parent="1">
          <mxGeometry x="1290" y="480" width="160" height="20" as="geometry" />
        </mxCell>
        <mxCell id="kyU2B2ZRMLNJrYc_353p-70" value="31 ~ 16" style="rounded=0;whiteSpace=wrap;html=1;fontSize=20;fontStyle=1;strokeColor=none;fillColor=none;fontColor=#CC0000;" vertex="1" parent="1">
          <mxGeometry x="1470" y="480" width="160" height="20" as="geometry" />
        </mxCell>
        <mxCell id="kyU2B2ZRMLNJrYc_353p-71" value="&lt;font style=&quot;font-size: 32px;&quot;&gt;&lt;b style=&quot;&quot;&gt;U23&lt;/b&gt;&lt;/font&gt;&lt;div&gt;&lt;b style=&quot;font-size: 20px; background-color: transparent; color: light-dark(rgb(0, 0, 0), rgb(255, 255, 255));&quot;&gt;FE_5&lt;/b&gt;&lt;/div&gt;" style="rounded=0;whiteSpace=wrap;html=1;fillColor=#dae8fc;strokeColor=#6c8ebf;" vertex="1" parent="1">
          <mxGeometry x="1140" y="360" width="100" height="100" as="geometry" />
        </mxCell>
        <mxCell id="kyU2B2ZRMLNJrYc_353p-72" value="Power Connector" style="rounded=0;whiteSpace=wrap;html=1;fillColor=#fad9d5;strokeColor=#ae4132;dashed=1;dashPattern=8 8;" vertex="1" parent="1">
          <mxGeometry x="1580" y="80" width="80" height="40" as="geometry" />
        </mxCell>
        <mxCell id="kyU2B2ZRMLNJrYc_353p-73" value="Data Connector" style="rounded=0;whiteSpace=wrap;html=1;fillColor=#b1ddf0;strokeColor=#10739e;dashed=1;dashPattern=8 8;" vertex="1" parent="1">
          <mxGeometry x="1245" y="80" width="80" height="40" as="geometry" />
        </mxCell>
      </root>
    </mxGraphModel>
  </diagram>
</mxfile>
